<?xml version="1.0" standalone="no"?>
<!DOCTYPE svg PUBLIC "-//W3C//DTD SVG 20010904//EN"
 "http://www.w3.org/TR/2001/REC-SVG-20010904/DTD/svg10.dtd">
<svg version="1.0" xmlns="http://www.w3.org/2000/svg"
 width="1200.000000pt" height="1200.000000pt" viewBox="0 0 1200.000000 1200.000000"
 preserveAspectRatio="xMidYMid meet">
<metadata>
Created by potrace 1.14, written by Peter Selinger 2001-2017
</metadata>
<g transform="translate(0.000000,1200.000000) scale(0.100000,-0.100000)"
fill="#000000" stroke="none">
<path d="M0 7775 l0 -1795 1773 -2 1772 -3 3 -1772 2 -1773 1795 0 1795 0 0
1800 0 1800 -1770 0 -1770 0 0 1770 0 1770 -1800 0 -1800 0 0 -1795z m2935
1415 c33 -31 41 -79 21 -118 -9 -17 -21 -32 -28 -35 -9 -3 -7 -10 8 -21 52
-38 55 -122 6 -168 -33 -31 -62 -41 -119 -40 -58 2 -102 26 -119 67 -24 58
-19 75 21 75 30 0 37 -5 49 -34 27 -66 116 -52 116 18 0 39 -13 53 -55 58 -26
3 -30 7 -30 33 0 27 4 30 33 33 70 7 66 92 -4 92 -31 0 -37 -4 -47 -30 -12
-30 -23 -35 -65 -24 -33 9 -22 49 24 93 35 32 39 33 100 29 49 -3 69 -9 89
-28z m347 25 c3 -3 2 -20 -1 -38 l-7 -32 -76 -3 -76 -3 -5 -32 c-6 -39 -4 -41
21 -28 106 57 214 -85 153 -199 -25 -47 -68 -71 -129 -72 -78 0 -126 32 -138
90 -6 32 -6 32 35 32 22 0 41 -4 41 -10 0 -18 40 -50 62 -50 37 0 58 28 58 80
0 31 -6 52 -16 60 -22 19 -75 16 -89 -3 -8 -11 -26 -17 -49 -17 -36 0 -37 1
-32 33 6 32 26 185 26 193 0 6 216 5 222 -1z m-1600 -498 c107 -25 195 -72
264 -141 70 -70 98 -119 119 -208 55 -235 -44 -432 -251 -502 l-66 -22 59 -13
c119 -26 231 -110 296 -222 35 -60 67 -186 67 -263 -2 -292 -144 -478 -417
-546 -128 -32 -281 -40 -745 -40 l-438 0 0 991 0 991 523 -5 c433 -3 534 -7
589 -20z m1496 -689 l-3 -173 -71 -7 c-172 -17 -287 -99 -340 -243 -17 -45
-19 -89 -22 -447 l-3 -398 -170 0 -169 0 0 705 0 705 170 0 170 0 1 -97 c0
-80 2 -94 12 -78 29 48 111 124 160 149 59 29 159 54 225 55 l42 1 -2 -172z
m3312 -2363 l0 -35 -79 0 c-84 0 -90 -5 -91 -63 0 -14 4 -16 19 -7 11 5 35 10
54 10 119 0 166 -166 72 -249 -32 -28 -42 -31 -100 -31 -53 0 -68 4 -93 25
-30 25 -56 78 -45 89 12 11 83 6 83 -6 0 -20 32 -48 57 -48 50 0 82 76 53 130
-16 29 -59 34 -91 11 -36 -27 -89 -28 -89 -3 0 22 21 183 26 200 2 9 34 12
114 12 l110 0 0 -35z m283 24 c29 -15 56 -50 57 -71 0 -10 -11 -19 -31 -23
-24 -6 -34 -2 -54 19 -27 30 -29 30 -57 15 -20 -11 -48 -65 -48 -94 0 -15 2
-15 22 -1 12 9 37 16 56 16 123 0 167 -159 66 -239 -20 -15 -41 -21 -80 -21
-94 0 -144 68 -144 198 0 125 60 212 146 212 25 0 55 -5 67 -11z m-1814 -519
c260 -63 407 -254 388 -503 -7 -95 -38 -175 -92 -235 -47 -53 -138 -106 -198
-117 -21 -4 -36 -9 -34 -11 2 -3 30 -11 62 -19 214 -56 355 -249 354 -485 0
-219 -96 -399 -258 -484 -159 -83 -275 -96 -876 -96 l-465 0 0 985 0 985 518
0 c484 0 522 -1 601 -20z m1407 -520 c121 -11 225 -38 291 -77 61 -35 128
-114 155 -181 22 -56 23 -67 28 -557 6 -486 6 -502 28 -555 12 -30 22 -56 22
-57 0 -2 -81 -3 -180 -3 l-179 0 -12 43 c-22 82 -16 80 -96 31 -107 -65 -206
-95 -333 -101 -123 -6 -195 6 -279 48 -119 60 -193 150 -226 274 -50 193 28
376 201 475 77 45 119 57 358 106 120 24 250 52 287 61 l69 16 0 46 c0 63 -28
111 -81 141 -41 23 -53 25 -179 25 -117 0 -140 -3 -175 -21 -47 -24 -85 -89
-85 -145 l0 -36 -117 4 c-65 2 -142 6 -170 9 -52 5 -53 6 -53 37 0 43 22 123
48 173 62 122 230 218 422 242 104 13 129 13 256 2z"/>
<path d="M940 8194 l0 -245 283 3 283 3 59 30 c45 23 66 42 90 79 27 44 30 58
30 130 0 95 -24 149 -84 190 -68 47 -132 56 -408 56 l-253 0 0 -246z"/>
<path d="M940 7381 l0 -291 263 0 c351 0 448 18 517 96 97 111 68 340 -52 421
-74 49 -116 55 -435 60 l-293 5 0 -291z"/>
<path d="M6662 5468 c-7 -7 -12 -29 -12 -50 0 -29 6 -41 26 -55 24 -15 29 -15
53 -2 29 16 40 64 21 99 -12 23 -68 28 -88 8z"/>
<path d="M4210 4650 l0 -252 273 4 c226 4 280 7 316 21 98 38 149 104 158 206
11 116 -41 201 -145 242 -53 21 -76 23 -329 27 l-273 4 0 -252z"/>
<path d="M4210 3834 l0 -286 313 4 c297 3 315 5 369 26 129 52 185 183 145
340 -27 100 -88 158 -200 188 -38 10 -128 14 -339 14 l-288 0 0 -286z"/>
<path d="M6477 3909 c-9 -6 -108 -30 -220 -55 -218 -49 -268 -70 -305 -124
-20 -30 -23 -44 -20 -97 3 -55 8 -67 38 -98 51 -53 103 -68 207 -63 147 8 256
65 304 160 17 33 19 55 17 162 -3 116 -4 124 -21 115z"/>
<path d="M6975 8744 c-123 -16 -331 -76 -393 -114 -42 -26 -59 -62 -44 -95 9
-18 28 -29 84 -46 92 -28 114 -50 125 -125 4 -33 8 -336 8 -674 0 -577 -1
-618 -19 -664 -16 -41 -25 -51 -67 -70 -65 -31 -79 -44 -79 -76 0 -41 33 -76
83 -89 72 -18 283 -24 401 -12 137 14 170 30 174 87 3 47 -5 56 -82 94 -74 36
-78 50 -89 295 -9 211 -4 265 24 265 23 0 130 -125 406 -480 131 -168 182
-223 228 -248 38 -20 276 -22 344 -3 57 16 91 51 91 92 0 46 -21 64 -113 96
-67 23 -93 38 -146 88 -72 68 -230 253 -360 425 -105 137 -125 173 -112 198
18 33 218 220 257 240 21 11 66 27 99 36 33 10 68 19 78 22 28 9 57 46 57 74
0 77 -80 105 -296 104 -211 -2 -281 -24 -299 -96 -7 -29 16 -58 79 -101 25
-17 25 -19 12 -46 -20 -39 -228 -235 -282 -267 -35 -21 -48 -24 -57 -15 -13
13 -16 285 -7 783 4 247 3 289 -10 302 -18 17 -53 25 -95 20z"/>
<path d="M8467 8690 c-39 -12 -95 -56 -118 -94 -27 -45 -26 -123 4 -167 36
-54 97 -82 176 -82 108 0 176 39 213 122 51 113 -48 232 -191 230 -31 0 -69
-5 -84 -9z"/>
<path d="M11820 8209 c-35 -21 -88 -47 -117 -56 -52 -16 -58 -16 -171 6 -248
50 -426 38 -580 -39 -180 -91 -282 -253 -282 -450 0 -137 38 -236 124 -321
l36 -36 -37 -25 c-57 -38 -119 -104 -142 -152 -24 -49 -27 -122 -8 -169 17
-39 87 -104 122 -113 33 -8 32 -16 -7 -39 -55 -32 -120 -98 -139 -140 -28 -61
-24 -121 12 -193 88 -176 371 -279 690 -252 364 32 619 205 658 446 16 104 -8
196 -67 257 -98 102 -236 124 -562 91 -159 -16 -291 -14 -364 7 -58 16 -96 58
-96 106 0 48 43 116 68 109 9 -3 37 -11 62 -18 28 -8 104 -12 205 -12 146 0
167 2 240 27 175 58 292 169 345 327 30 90 29 215 -4 312 -14 41 -20 75 -15
77 27 9 97 71 121 106 40 58 45 102 16 144 -13 19 -27 36 -33 37 -5 2 -39 -15
-75 -37z m-442 -225 c52 -33 105 -104 124 -167 18 -61 15 -183 -5 -243 -63
-185 -297 -247 -424 -113 -59 63 -78 120 -78 239 0 92 3 112 26 160 30 65 78
116 134 142 60 28 160 20 223 -18z m223 -1204 c19 -5 48 -24 65 -41 25 -26 29
-38 29 -89 0 -50 -4 -64 -31 -97 -64 -80 -154 -123 -304 -144 -131 -19 -296 8
-375 62 -76 53 -104 143 -70 226 31 73 28 72 219 73 94 0 198 4 231 9 85 12
194 13 236 1z"/>
<path d="M4250 8166 c-196 -52 -349 -174 -434 -348 -60 -121 -76 -188 -83
-329 -7 -146 11 -238 72 -364 107 -223 320 -361 576 -373 135 -6 228 14 347
73 96 48 207 136 259 203 52 69 42 135 -22 148 -24 4 -41 -2 -83 -30 -29 -20
-74 -51 -102 -70 -277 -191 -640 -42 -690 282 -9 57 -9 77 2 99 l13 28 437 5
437 5 23 23 c49 49 32 255 -32 391 -36 75 -131 173 -207 214 -130 69 -346 88
-513 43z m284 -175 c100 -44 174 -145 183 -253 9 -92 24 -88 -307 -88 -332 0
-316 -5 -307 90 12 132 101 237 232 271 46 12 150 2 199 -20z"/>
<path d="M5638 8180 c-180 -31 -324 -112 -371 -212 -9 -20 -17 -59 -17 -88 0
-46 4 -56 34 -86 30 -30 40 -34 85 -34 71 0 95 15 183 112 102 113 157 143
259 143 65 0 81 -4 116 -27 66 -44 86 -98 91 -247 l5 -124 -34 7 c-19 3 -101
9 -184 12 -178 7 -296 -12 -410 -67 -78 -39 -162 -115 -194 -177 -89 -174 -61
-393 68 -522 82 -82 186 -119 331 -120 132 0 189 19 378 126 l34 19 42 -47
c73 -83 101 -98 176 -98 149 0 290 84 290 172 0 33 -26 52 -92 68 -86 22 -82
2 -90 428 -3 207 -9 401 -13 432 -22 177 -128 284 -320 325 -75 16 -286 18
-367 5z m261 -720 c136 -15 124 3 120 -179 -4 -144 -6 -160 -29 -206 -38 -74
-95 -100 -215 -100 -82 0 -98 3 -150 30 -76 39 -114 96 -122 182 -13 148 70
245 232 272 70 12 70 12 164 1z"/>
<path d="M8505 8161 c-198 -51 -295 -104 -295 -161 0 -35 24 -56 90 -78 31
-11 62 -29 73 -44 28 -38 39 -198 35 -537 -4 -347 -3 -346 -94 -388 -87 -40
-98 -104 -26 -146 50 -29 259 -44 419 -30 152 14 186 30 191 87 4 46 -13 68
-69 86 -57 19 -86 58 -95 127 -4 32 -3 245 2 473 13 578 12 594 -10 619 -26
29 -85 27 -221 -8z"/>
<path d="M9335 8174 c-96 -21 -241 -70 -291 -99 -45 -26 -66 -66 -54 -100 4
-13 33 -31 81 -50 57 -24 77 -38 89 -60 11 -24 16 -102 22 -360 4 -181 4 -361
1 -398 -7 -82 -31 -124 -89 -152 -61 -29 -74 -44 -74 -79 0 -40 30 -70 85 -85
114 -30 467 -21 535 14 31 16 44 46 38 86 -2 18 -20 32 -73 59 -98 49 -97 47
-93 385 5 305 16 380 71 463 80 119 234 164 350 100 81 -45 112 -122 128 -322
14 -166 7 -497 -12 -551 -12 -35 -23 -44 -77 -70 -35 -17 -67 -37 -73 -45 -16
-26 -10 -66 14 -88 38 -35 110 -44 340 -40 234 4 278 13 297 63 18 47 3 74
-58 103 -101 49 -96 27 -103 465 -7 409 -9 431 -63 542 -29 59 -122 152 -182
183 -78 40 -151 55 -249 50 -78 -3 -102 -9 -156 -35 -35 -18 -97 -61 -137 -98
-40 -36 -77 -63 -83 -60 -5 4 -9 40 -9 81 0 116 -24 130 -175 98z"/>
<path d="M8415 5179 c-63 -15 -196 -60 -238 -81 -56 -28 -77 -53 -77 -93 0
-41 9 -48 100 -78 88 -30 100 -52 107 -199 3 -71 1 -123 -6 -141 l-11 -27 -37
16 c-21 9 -73 27 -117 40 -94 29 -245 32 -345 9 -153 -36 -311 -155 -394 -296
-82 -140 -122 -341 -106 -531 29 -349 262 -587 574 -588 129 0 227 38 364 141
35 27 68 49 72 49 5 0 9 -19 9 -42 0 -78 11 -118 37 -136 22 -14 35 -14 110
-3 90 13 252 60 315 92 41 21 58 45 58 82 0 33 -12 41 -98 67 -60 17 -75 26
-83 47 -24 63 -31 364 -23 923 11 779 12 714 -10 739 -16 18 -30 21 -90 20
-39 -1 -89 -5 -111 -10z m-363 -730 c114 -24 230 -110 243 -181 4 -19 5 -162
3 -318 l-3 -285 -28 -57 c-49 -100 -134 -148 -262 -148 -156 0 -271 99 -332
288 -34 104 -43 286 -19 393 38 170 112 264 241 305 51 16 91 17 157 3z"/>
</g>
</svg>
